<svg width="120" height="68" viewBox="0 0 120 68" fill="none" xmlns="http://www.w3.org/2000/svg">
<mask id="mask0_17_426" style="mask-type:luminance" maskUnits="userSpaceOnUse" x="7" y="27" width="106" height="13">
<path d="M112.941 27.75H7.05859V39.75H112.941V27.75Z" fill="white"/>
</mask>
<g mask="url(#mask0_17_426)">
<path d="M28.623 36.0706L23.4468 27.9475H20.6484V39.5414H23.0262V31.4183L28.2023 39.5414H31.0007V27.9475H28.623V36.0706Z" fill="#181818"/>
<path d="M32.9707 30.1814H36.8299V39.5414H39.2991V30.1814H43.1584V27.9475H32.9707V30.1814Z" fill="#181818"/>
<path d="M53.0101 32.5814H47.5961V27.966H45.127V39.5598H47.5961V34.8152H53.0101V39.5598H55.4792V27.9475H53.0101V32.5814Z" fill="#181818"/>
<path d="M60.9672 30.1814H64.0034C65.2106 30.1814 65.8507 30.6245 65.8507 31.4738C65.8507 32.323 65.2106 32.7661 64.0034 32.7661H60.9672V30.1814ZM68.3199 31.4922C68.3199 29.2953 66.7287 27.9661 64.1132 27.9661H58.498V39.5599H60.9672V35.0184H63.7108L66.18 39.5599H68.9052L66.18 34.6676C67.5517 34.1322 68.3199 33.0245 68.3199 31.4922Z" fill="#181818"/>
<path d="M75.8653 37.4238C73.9265 37.4238 72.7377 36.0392 72.7377 33.7685C72.7377 31.4608 73.9265 30.0762 75.8653 30.0762C77.7858 30.0762 78.9563 31.4608 78.9563 33.7685C78.9563 36.0392 77.7858 37.4238 75.8653 37.4238ZM75.8653 27.75C72.5548 27.75 70.1953 30.2423 70.1953 33.7685C70.1953 37.2577 72.5365 39.75 75.8653 39.75C79.1575 39.75 81.4987 37.2577 81.4987 33.7685C81.4987 30.2423 79.1758 27.75 75.8653 27.75Z" fill="#181818"/>
<path d="M89.3081 33.0983H86.2719V30.1814H89.3081C90.5153 30.1814 91.1554 30.6798 91.1554 31.6398C91.1554 32.5998 90.5336 33.0983 89.3081 33.0983ZM89.4178 27.9475H83.8027V39.5414H86.2719V35.3506H89.4178C92.0334 35.3506 93.6246 33.966 93.6246 31.6583C93.6246 29.3506 92.0334 27.9475 89.4178 27.9475Z" fill="#181818"/>
<path d="M110.314 35.6515C109.894 36.7777 109.034 37.4238 107.863 37.4238C105.925 37.4238 104.736 36.0392 104.736 33.7685C104.736 31.4608 105.925 30.0762 107.863 30.0762C109.034 30.0762 109.875 30.7223 110.314 31.8485H112.93C112.271 29.3562 110.351 27.75 107.863 27.75C104.553 27.75 102.193 30.2423 102.193 33.7685C102.193 37.2577 104.535 39.75 107.863 39.75C110.369 39.75 112.29 38.1254 112.93 35.6515H110.314Z" fill="#181818"/>
<path d="M94.6191 27.9475L99.21 39.5414H101.716L97.1249 27.9475H94.6191Z" fill="#181818"/>
<path d="M11.3934 34.9629L12.9664 30.8829L14.5393 34.9629H11.3934ZM11.6495 27.9475L7.05859 39.5598H9.61923L10.552 37.1229H15.3441L16.2769 39.5598H18.8375L14.265 27.9475H11.6495Z" fill="#181818"/>
</g>
</svg>
