<svg width="136" height="78" viewBox="0 0 136 78" fill="none" xmlns="http://www.w3.org/2000/svg">
<mask id="mask0_17_496" style="mask-type:luminance" maskUnits="userSpaceOnUse" x="0" y="0" width="136" height="77">
<path d="M135.884 0.5H0V76.9349H135.884V0.5Z" fill="white"/>
</mask>
<g mask="url(#mask0_17_496)">
<mask id="mask1_17_496" style="mask-type:luminance" maskUnits="userSpaceOnUse" x="15" y="24" width="106" height="29">
<path d="M120.277 24.5249H15.6072V52.91H120.277V24.5249Z" fill="white"/>
</mask>
<g mask="url(#mask1_17_496)">
<path d="M48.2002 38.171C48.2002 42.812 51.1806 46.0479 55.3106 46.0479C59.4407 46.0479 62.4211 42.812 62.4211 38.171C62.4211 33.5301 59.4407 30.2942 55.3106 30.2942C51.1806 30.2942 48.2002 33.5301 48.2002 38.171ZM59.6961 38.171C59.6961 41.4921 57.8866 43.6423 55.3106 43.6423C52.7347 43.6423 50.9251 41.4921 50.9251 38.171C50.9251 34.85 52.7347 32.6998 55.3106 32.6998C57.8866 32.6998 59.6961 34.85 59.6961 38.171Z" fill="black"/>
<path d="M70.0949 46.0479C73.2244 46.0479 75.0127 43.4081 75.0127 40.2361C75.0127 37.064 73.2244 34.4242 70.0949 34.4242C68.6473 34.4242 67.5829 34.999 66.8803 35.8293V34.6371H64.3257V49.6457H66.8803V44.6428C67.5829 45.4731 68.6473 46.0479 70.0949 46.0479ZM66.8165 39.9167C66.8165 37.8091 68.0086 36.6595 69.584 36.6595C71.4361 36.6595 72.4367 38.1072 72.4367 40.2361C72.4367 42.3649 71.4361 43.8126 69.584 43.8126C68.0086 43.8126 66.8165 42.6417 66.8165 40.5767V39.9167Z" fill="black"/>
<path d="M81.9259 46.0479C84.1613 46.0479 85.9282 44.877 86.7159 42.9184L84.5232 42.0882C84.1825 43.2378 83.182 43.8764 81.9259 43.8764C80.2867 43.8764 79.1371 42.7056 78.9455 40.7896H86.7798V39.938C86.7798 36.8724 85.0554 34.4242 81.8195 34.4242C78.5836 34.4242 76.4973 36.9576 76.4973 40.2361C76.4973 43.6848 78.7326 46.0479 81.9259 46.0479ZM81.7982 36.5744C83.4162 36.5744 84.1825 37.6388 84.2038 38.8736H79.0732C79.4564 37.3621 80.4783 36.5744 81.7982 36.5744Z" fill="black"/>
<path d="M88.6975 45.8137H91.2521V39.2568C91.2521 37.6601 92.423 36.8085 93.5726 36.8085C94.9777 36.8085 95.5312 37.8091 95.5312 39.1929V45.8137H98.0859V38.4478C98.0859 36.0421 96.6808 34.4242 94.339 34.4242C92.8914 34.4242 91.8908 35.0841 91.2521 35.8293V34.6371H88.6975V45.8137Z" fill="black"/>
<path d="M105.567 30.5284L99.7766 45.8138H102.48L103.779 42.3224H110.378L111.698 45.8138H114.444L108.654 30.5284H105.567ZM107.057 33.5514L109.484 39.9381H104.673L107.057 33.5514Z" fill="black"/>
<path d="M118.83 30.5727H116.105V45.8581H118.83V30.5727Z" fill="black"/>
<path d="M41.9568 36.1424C42.6007 34.2096 42.379 32.0922 41.3491 30.3341C39.8004 27.6375 36.6869 26.2502 33.6461 26.9031C32.2934 25.3791 30.3499 24.5125 28.3124 24.5249C25.2042 24.5178 22.4464 26.519 21.4902 29.4763C19.4935 29.8853 17.7699 31.1351 16.7614 32.9065C15.2011 35.596 15.5568 38.9863 17.6413 41.2926C16.9973 43.2254 17.2191 45.3428 18.2489 47.1009C19.7977 49.7975 22.9112 51.1848 25.952 50.5319C27.3038 52.0558 29.2482 52.9225 31.2857 52.9092C34.3957 52.9172 37.1543 50.9142 38.1106 47.9542C40.1073 47.5453 41.8308 46.2954 42.8394 44.524C44.3979 41.8345 44.0413 38.4469 41.9576 36.1406L41.9568 36.1424ZM31.2875 51.0544C30.043 51.0562 28.8375 50.6206 27.8822 49.8232C27.9256 49.8001 28.001 49.7584 28.0498 49.7283L33.702 46.464C33.9912 46.2999 34.1686 45.9921 34.1668 45.6594V37.6912L36.5556 39.0705C36.5813 39.0829 36.5982 39.1078 36.6017 39.1362V45.7348C36.5982 48.6691 34.2218 51.0482 31.2875 51.0544ZM19.8589 46.173C19.2353 45.0962 19.0109 43.8339 19.2247 42.6089C19.2664 42.6337 19.34 42.679 19.3923 42.7091L25.0445 45.9734C25.331 46.1411 25.6859 46.1411 25.9733 45.9734L32.8735 41.9889V44.7476C32.8753 44.7759 32.862 44.8034 32.8398 44.8212L27.1264 48.1201C24.5815 49.5855 21.3305 48.7144 19.8589 46.173ZM18.3714 33.8352C18.9923 32.7566 19.9725 31.9317 21.1398 31.5032C21.1398 31.552 21.1371 31.6381 21.1371 31.6984V38.2278C21.1354 38.5596 21.3128 38.8674 21.6011 39.0315L28.5013 43.0152L26.1125 44.3945C26.0886 44.4105 26.0584 44.4131 26.0318 44.4016L20.3175 41.1001C17.7779 39.6294 16.9069 36.3801 18.3705 33.8361L18.3714 33.8352ZM37.9979 38.4026L31.0977 34.418L33.4865 33.0396C33.5104 33.0236 33.5406 33.0209 33.5672 33.0325L39.2815 36.3314C41.8255 37.8012 42.6974 41.0557 41.2276 43.5997C40.6058 44.6766 39.6265 45.5015 38.4601 45.9309V39.2062C38.4627 38.8745 38.2853 38.5676 37.9979 38.4026ZM40.3752 34.8243C40.3335 34.7986 40.2599 34.7542 40.2075 34.7241L34.5553 31.4598C34.2688 31.2921 33.914 31.2921 33.6266 31.4598L26.7263 35.4443V32.6856C26.7246 32.6573 26.7379 32.6298 26.7601 32.612L32.4735 29.3158C35.0184 27.8477 38.272 28.7215 39.7392 31.2673C40.3592 32.3424 40.5836 33.6011 40.3734 34.8243H40.3752ZM25.4277 39.7411L23.0381 38.3618C23.0123 38.3494 22.9955 38.3245 22.9919 38.2961V31.6975C22.9937 28.7596 25.3772 26.3788 28.315 26.3806C29.5578 26.3806 30.7606 26.817 31.7159 27.6118C31.6725 27.6349 31.598 27.6766 31.5483 27.7067L25.8961 30.971C25.6069 31.1351 25.4295 31.442 25.4313 31.7747L25.4277 39.7394V39.7411ZM26.7255 36.9434L29.799 35.1685L32.8726 36.9425V40.4916L29.799 42.2656L26.7255 40.4916V36.9434Z" fill="black"/>
</g>
</g>
</svg>
