<svg width="136" height="77" viewBox="0 0 136 77" fill="none" xmlns="http://www.w3.org/2000/svg">
<mask id="mask0_17_453" style="mask-type:luminance" maskUnits="userSpaceOnUse" x="0" y="0" width="136" height="77">
<path d="M135.884 0.5H0V76.9349H135.884V0.5Z" fill="white"/>
</mask>
<g mask="url(#mask0_17_453)">
<mask id="mask1_17_453" style="mask-type:luminance" maskUnits="userSpaceOnUse" x="27" y="25" width="82" height="28">
<path d="M108.414 25.3764H27.4707V52.0585H108.414V25.3764Z" fill="white"/>
</mask>
<g mask="url(#mask1_17_453)">
<path d="M100.825 42.9198C98.5641 42.9198 96.9706 41.1558 96.9706 38.8359C96.9706 36.5161 98.5641 34.7521 100.825 34.7521C103.085 34.7521 104.634 36.5161 104.634 38.8359C104.634 41.1558 103.063 42.9198 100.825 42.9198ZM100.461 45.3508C102.285 45.3508 103.834 44.6393 104.812 43.1495C104.997 44.5948 106.042 45.121 107.362 45.121H108.414V42.8308H107.962C107.214 42.8308 107.028 42.4677 107.028 41.6153V32.5582H104.612V34.4186C103.789 33.1141 102.24 32.3285 100.461 32.3285C97.2893 32.3285 94.3765 34.9893 94.3765 38.8359C94.3765 42.6826 97.2967 45.3434 100.461 45.3434V45.3508ZM88.0173 42.2082C88.0173 44.2687 89.2921 45.121 90.8189 45.121H93.7613V42.8308H91.6194C90.7299 42.8308 90.5447 42.4899 90.5447 41.6153V34.8484H93.7613V32.5582H90.5447V28.341H88.0173V42.2082ZM76.5069 45.121H79.0343V39.7327H79.8792L84.1854 45.121H87.3799L81.8878 38.2875L86.1051 32.5582H83.259L79.8125 37.3981H79.0343V28.341H76.5069V45.121ZM68.3022 32.3285C64.7668 32.3285 61.854 34.9893 61.854 38.8359C61.854 42.6826 64.7742 45.3434 68.3022 45.3434C71.8301 45.3434 74.7503 42.6826 74.7503 38.8359C74.7503 34.9893 71.8301 32.3285 68.3022 32.3285ZM68.3022 42.9198C66.0416 42.9198 64.4481 41.1558 64.4481 38.8359C64.4481 36.5161 66.0416 34.7521 68.3022 34.7521C70.5627 34.7521 72.1563 36.5161 72.1563 38.8359C72.1563 41.1558 70.5627 42.9198 68.3022 42.9198Z" fill="#191919"/>
<path fill-rule="evenodd" clip-rule="evenodd" d="M42.1451 25.5689L41.5967 32.3283C41.3373 32.2987 41.0778 32.2839 40.811 32.2839C40.4775 32.2839 40.1514 32.3061 39.8327 32.358L39.5214 29.082C39.514 28.9782 39.5955 28.8893 39.6993 28.8893H40.2552L39.9883 25.5763C39.9809 25.4725 40.0624 25.3836 40.1588 25.3836H41.9747C42.0784 25.3836 42.16 25.4725 42.1451 25.5763V25.5689ZM37.5647 25.9024C37.5351 25.806 37.4313 25.7467 37.3349 25.7838L35.6303 26.4064C35.5339 26.4434 35.4894 26.5546 35.5339 26.6436L36.9199 29.6675L36.3937 29.8602C36.2973 29.8973 36.2528 30.0085 36.2973 30.0974L37.7129 33.0695C38.2243 32.7879 38.7802 32.5729 39.3657 32.4395L37.5721 25.9024H37.5647ZM33.3845 27.785L37.3053 33.3141C36.8087 33.6402 36.3566 34.0256 35.9712 34.4703L33.6217 32.1579C33.5476 32.0837 33.555 31.9652 33.6291 31.8985L34.059 31.5427L31.7243 29.1784C31.6502 29.1042 31.6576 28.9857 31.7391 28.919L33.1251 27.7553C33.2066 27.6886 33.3178 27.7034 33.3771 27.785H33.3845ZM30.0937 30.9868C30.0122 30.9275 29.8936 30.9572 29.8417 31.0461L28.9375 32.6174C28.8856 32.7063 28.9227 32.8175 29.0116 32.862L32.0208 34.285L31.7391 34.7668C31.6872 34.8557 31.7243 34.9743 31.8206 35.0114L34.815 36.3825C35.0299 35.8266 35.319 35.3078 35.6747 34.8409L30.0937 30.9868ZM27.8776 35.2559C27.8925 35.1522 27.9962 35.0929 28.0926 35.1151L34.6519 36.8272C34.4814 37.3831 34.3851 37.9686 34.3703 38.5764L31.0869 38.3096C30.9831 38.3021 30.909 38.2058 30.9312 38.102L31.0276 37.5536L27.7146 37.2423C27.6108 37.2349 27.5441 37.1385 27.5589 37.0347L27.8702 35.2485L27.8776 35.2559ZM27.633 39.6881C27.5293 39.6955 27.4626 39.7919 27.4774 39.8957L27.7961 41.6819C27.8109 41.7856 27.9147 41.8449 28.011 41.8227L31.2277 40.9852L31.3241 41.5336C31.3389 41.6374 31.4427 41.6967 31.539 41.6745L34.7112 40.7999C34.5259 40.2514 34.4073 39.6659 34.3777 39.0656L27.6256 39.6881H27.633ZM28.6855 44.3871C28.6336 44.2982 28.6707 44.187 28.7596 44.1426L34.8817 41.2372C35.1114 41.7856 35.4227 42.2971 35.7933 42.7566L33.1103 44.6688C33.0288 44.7281 32.9102 44.7058 32.8583 44.6169L32.5766 44.1277L29.8417 46.0177C29.7602 46.077 29.6416 46.0474 29.5897 45.9584L28.6781 44.3871H28.6855ZM36.1046 43.1123L31.3389 47.9373C31.2648 48.0115 31.2722 48.1301 31.3537 48.1968L32.7471 49.3604C32.8286 49.4271 32.9398 49.4123 32.9991 49.3307L34.9261 46.6181L35.356 46.9812C35.4376 47.0479 35.5561 47.0331 35.6154 46.9442L37.4832 44.2315C36.9792 43.9202 36.5122 43.5422 36.112 43.1123H36.1046ZM35.1633 50.8576C35.067 50.8205 35.0225 50.7093 35.067 50.6204L37.8908 44.4539C38.4096 44.7207 38.9729 44.9208 39.5585 45.032L38.7283 48.219C38.7061 48.3153 38.5949 48.3746 38.4986 48.3376L37.9724 48.1449L37.0904 51.3541C37.0607 51.4505 36.9569 51.5098 36.8606 51.4727L35.1559 50.8501L35.1633 50.8576ZM40.0254 45.1135L39.4769 51.873C39.4695 51.9767 39.551 52.0657 39.6474 52.0657H41.4633C41.567 52.0657 41.6485 51.9767 41.6337 51.873L41.3669 48.5599H41.9228C42.0265 48.5599 42.1081 48.471 42.1007 48.3672L41.7894 45.0913C41.4707 45.1431 41.1446 45.1654 40.811 45.1654C40.5442 45.1654 40.2848 45.1505 40.0254 45.1135ZM46.5625 26.814C46.607 26.7177 46.5625 26.6139 46.4661 26.5769L44.7615 25.9543C44.6651 25.9172 44.5613 25.9765 44.5317 26.0729L43.6497 29.2821L43.1235 29.0894C43.0271 29.0524 42.9234 29.1117 42.8937 29.208L42.0636 32.395C42.6565 32.5136 43.2124 32.7137 43.7312 32.9731L46.5625 26.814ZM50.2832 29.5045L45.5175 34.3295C45.1172 33.8996 44.6577 33.5216 44.1463 33.2103L46.014 30.4976C46.0733 30.4161 46.1919 30.3939 46.2734 30.4606L46.7033 30.8238L48.6304 28.1111C48.6897 28.0295 48.8082 28.0147 48.8824 28.0814L50.2758 29.2451C50.3573 29.3118 50.3573 29.4304 50.2906 29.5045H50.2832ZM52.8624 33.2993C52.9588 33.2548 52.9884 33.1436 52.9366 33.0547L52.0249 31.4834C51.973 31.3945 51.8544 31.3722 51.7729 31.4241L49.038 33.3141L48.7564 32.8323C48.7045 32.7434 48.5859 32.7137 48.5044 32.7804L45.8213 34.6927C46.1919 35.1522 46.4958 35.6636 46.733 36.2121L52.855 33.3067L52.8624 33.2993ZM53.826 35.7599L54.1372 37.5462C54.1521 37.6499 54.0854 37.7389 53.9816 37.7537L47.2295 38.3837C47.1999 37.7759 47.0813 37.1978 46.896 36.6493L50.0682 35.7748C50.1646 35.7451 50.2683 35.8118 50.2832 35.9156L50.3795 36.4641L53.5962 35.6265C53.6925 35.6043 53.7963 35.6636 53.8111 35.7674L53.826 35.7599ZM53.5221 42.3193C53.6184 42.3415 53.7222 42.2822 53.737 42.1785L54.0483 40.3922C54.0631 40.2885 53.9964 40.1995 53.8927 40.1847L50.5796 39.8734L50.676 39.325C50.6908 39.2212 50.6241 39.1323 50.5203 39.1174L47.237 38.8506C47.2221 39.4584 47.1258 40.0439 46.9553 40.5998L53.5147 42.3119L53.5221 42.3193ZM51.7729 46.3957C51.721 46.4847 51.6024 46.5069 51.5209 46.455L45.9399 42.6009C46.2957 42.134 46.5847 41.6152 46.7997 41.0593L49.794 42.4305C49.8903 42.4749 49.9274 42.5861 49.8755 42.675L49.5939 43.1568L52.603 44.5798C52.692 44.6243 52.729 44.7355 52.6771 44.8244L51.7729 46.3957ZM44.3093 44.1203L48.2301 49.6494C48.2894 49.731 48.408 49.7458 48.4821 49.6791L49.8681 48.5155C49.9496 48.4488 49.9496 48.3302 49.8829 48.256L47.5483 45.8917L47.9781 45.536C48.0597 45.4693 48.0597 45.3507 47.9855 45.2765L45.636 42.9641C45.2432 43.4088 44.7985 43.8016 44.3019 44.1203H44.3093ZM44.2723 51.6506C44.1759 51.6877 44.0722 51.6284 44.0425 51.532L42.2489 44.9949C42.8344 44.8615 43.3903 44.6466 43.9017 44.3649L45.3173 47.337C45.3618 47.4333 45.3173 47.5445 45.221 47.5742L44.6948 47.7669L46.0807 50.7908C46.1252 50.8872 46.0807 50.991 45.9844 51.028L44.2797 51.6506H44.2723Z" fill="#191919"/>
</g>
</g>
</svg>
