<svg width="142" height="36" viewBox="0 0 142 36" fill="none" xmlns="http://www.w3.org/2000/svg">
<path fill-rule="evenodd" clip-rule="evenodd" d="M9.03241 3.78006L17.0786 11.2415V11.2398V3.79728H18.6449V11.2749L26.7273 3.78006V12.2872H30.0455V24.558H26.7375V32.1332L18.6449 24.9773V32.2154H17.0786V25.0953L9.04154 32.2201V24.558H5.72314V12.2872H9.03241V3.78006ZM15.8979 13.8444H7.2894V23.0008H9.03954V20.1125L15.8979 13.8444ZM10.6077 20.8035V28.7453L17.0786 23.009V14.888L10.6077 20.8035ZM18.69 22.9331V14.8803L25.1628 20.7962V24.558H25.1711V28.6642L18.69 22.9331ZM26.7375 23.0008H28.4792V13.8444H19.9349L26.7375 20.0476V23.0008ZM25.1609 12.2872V7.36191L19.8495 12.2872H25.1609ZM15.91 12.2872H10.5987V7.36191L15.91 12.2872Z" fill="black"/>
<path d="M68.7433 12.1003H69.7378V14.1629H68.4506C67.4417 14.1629 66.6891 14.4072 66.1903 14.8972C65.6946 15.3856 65.4455 16.1889 65.4455 17.3056V24.0689H63.4129V12.1474H65.4455V14.0497C65.4455 14.157 65.4988 14.2101 65.6034 14.2101C65.6628 14.2101 65.7074 14.1953 65.7397 14.1645C65.7715 14.1335 65.7992 14.0732 65.831 13.9805C66.2221 12.7285 67.1951 12.1018 68.7448 12.1018H68.7433V12.1003ZM82.262 14.6559C82.7956 15.6107 83.0637 16.7612 83.0637 18.1059C83.0637 19.4506 82.7972 20.6011 82.262 21.556C81.7273 22.5108 81.0342 23.2258 80.1832 23.6996C79.3328 24.1733 78.4177 24.4102 77.4391 24.4102C75.5111 24.4102 74.1562 23.6304 73.3734 22.0709C73.3139 21.9488 73.237 21.887 73.1468 21.887C73.0571 21.887 73.011 21.9326 73.011 22.0253V28.4223H70.9784V12.1458H73.011V14.1865C73.011 14.2776 73.0556 14.3248 73.1468 14.3248C73.2386 14.3248 73.3124 14.2644 73.3734 14.1408C74.1562 12.5813 75.5111 11.8016 77.4391 11.8016C78.4177 11.8016 79.3328 12.0384 80.1832 12.5122C81.0342 12.986 81.7258 13.7009 82.262 14.6559ZM81.0327 18.1059C81.0327 16.6994 80.6605 15.6033 79.9151 14.8162C79.1703 14.0291 78.1886 13.6362 76.967 13.6362C75.7449 13.6362 74.7632 14.0305 74.0183 14.8162C73.2719 15.6033 72.9992 16.7008 72.9992 18.1059C72.9992 19.511 73.2729 20.6086 74.0183 21.3956C74.7632 22.1843 75.7464 22.5756 76.967 22.5756C78.1876 22.5756 79.1703 22.1813 79.9151 21.3956C80.6605 20.61 81.0327 19.511 81.0327 18.1059ZM48.0341 14.6735C48.5676 15.6283 48.8358 16.7789 48.8358 18.1235C48.8358 19.4683 48.5691 20.6188 48.0341 21.5736C47.4993 22.5285 46.8064 23.2435 45.9555 23.7172C45.1045 24.191 44.1899 24.4278 43.2113 24.4278C41.2834 24.4278 39.928 23.6481 39.1452 22.0886C39.0858 21.9665 39.009 21.9047 38.9191 21.9047C38.8292 21.9047 38.7829 21.9503 38.7829 22.043V28.44H36.752V12.1636H38.7843V14.2042C38.7843 14.2954 38.8292 14.3424 38.9206 14.3424C39.0119 14.3424 39.0858 14.2822 39.1467 14.1585C39.9295 12.599 41.2849 11.8192 43.2129 11.8192C44.1913 11.8192 45.106 12.0561 45.9569 12.5298C46.8078 13.0036 47.4993 13.7187 48.0357 14.6735H48.0341ZM46.8035 18.1235C46.8035 16.717 46.4309 15.621 45.6859 14.8338C44.9407 14.0482 43.9579 13.6539 42.7373 13.6539C41.5168 13.6539 40.534 14.0482 39.7889 14.8338C39.0438 15.6225 38.7698 16.7186 38.7698 18.1235C38.7698 19.5286 39.0438 20.6261 39.7889 21.4133C40.534 22.2019 41.5153 22.5932 42.7373 22.5932C43.9594 22.5932 44.9407 22.1989 45.6859 21.4133C46.4309 20.6276 46.8035 19.5286 46.8035 18.1235ZM59.8209 20.2819H61.9662C61.6807 21.3986 61.0963 22.3652 60.2166 23.1817C59.3354 23.9998 58.0743 24.4072 56.4318 24.4072C55.1969 24.4072 54.1096 24.1513 53.1689 23.6393C52.2277 23.1273 51.5018 22.399 50.9885 21.45C50.4754 20.5026 50.2202 19.3873 50.2202 18.103C50.2202 16.8185 50.4695 15.7034 50.9653 14.7558C51.4608 13.8084 52.1585 13.0786 53.0541 12.5667C53.9502 12.0546 54.9995 11.7986 56.2042 11.7986C57.4089 11.7986 58.4075 12.0517 59.2426 12.5549C60.0787 13.0595 60.7021 13.729 61.1168 14.5602C61.5315 15.3944 61.7371 16.3065 61.7371 17.2997V18.6753H52.3641C52.4379 19.867 52.8352 20.816 53.5498 21.5177C54.2644 22.221 55.2256 22.5726 56.4303 22.5726C57.4089 22.5726 58.1594 22.3711 58.6787 21.965C59.1975 21.559 59.5774 20.9984 59.8193 20.279L59.8209 20.2819ZM52.322 16.9583H59.4148C59.4148 15.9196 59.1514 15.1046 58.6233 14.5161C58.0958 13.929 57.2679 13.6332 56.1391 13.6332C55.0851 13.6332 54.2224 13.9202 53.5529 14.494C52.8828 15.0664 52.4727 15.8888 52.322 16.9583ZM84.7032 24.0659H86.7368V7.56H84.7032V24.0674V24.0659ZM113.286 10.8438H115.661V8.26323H113.286V10.8438ZM122.055 22.2902C121.686 22.3284 121.462 22.3475 121.388 22.3475C121.284 22.3475 121.198 22.3167 121.139 22.2548C121.079 22.1945 121.048 22.1106 121.048 22.0018C121.048 21.9268 121.067 21.7001 121.106 21.325C121.142 20.9513 121.162 20.3731 121.162 19.5948V13.8908H124.061L123.49 12.1444H121.163V8.93412H119.132V12.143H116.92V13.8893H119.132V20.1657C119.132 21.481 119.449 22.4593 120.08 23.1008C120.713 23.7423 121.676 24.0645 122.973 24.0645H124.554V22.2313H123.763C122.994 22.2313 122.426 22.2504 122.056 22.2886L122.055 22.2902ZM134.34 12.1444L130.975 22.1475C130.93 22.271 130.858 22.4314 130.629 22.4314C130.398 22.4314 130.325 22.271 130.28 22.1475L126.914 12.1444H124.841L128.739 24.0659H130.118C130.207 24.0659 130.276 24.0748 130.323 24.0894C130.367 24.1042 130.405 24.1425 130.435 24.2042C130.494 24.2955 130.487 24.4337 130.412 24.6162L129.78 26.3582C129.688 26.5877 129.516 26.7024 129.261 26.7024C129.17 26.7024 128.96 26.6832 128.629 26.645C128.297 26.6068 127.87 26.5877 127.342 26.5877H125.692V28.4208H127.861C129.126 28.4208 129.887 28.2031 130.542 27.7676C131.198 27.3322 131.705 26.5641 132.067 25.4637L136.277 12.602V12.1444H134.343H134.34ZM106.407 16.592L103.222 12.1444H100.985V12.602L104.802 17.7601L100.148 23.6069V24.0645H102.431L106.135 19.2726L109.591 24.0645H111.783V23.6069L107.738 18.1044L112.123 12.6256V12.1444H109.841L106.408 16.592H106.407ZM113.503 24.0659H115.536V12.1458H113.503V24.0674V24.0659ZM100.121 20.2819C99.8336 21.3986 99.2517 22.3652 98.3715 23.1817C97.4898 23.9998 96.2292 24.4072 94.5868 24.4072C93.3518 24.4072 92.2645 24.1513 91.3238 23.6393C90.3811 23.1273 89.6567 22.399 89.1436 21.45C88.6315 20.5026 88.3767 19.3873 88.3767 18.103C88.3767 16.8185 88.6258 15.7034 89.1216 14.7558C89.6193 13.8084 90.315 13.0786 91.2111 12.5667C92.1061 12.0546 93.156 11.7986 94.3622 11.7986C95.5685 11.7986 96.5655 12.0517 97.4016 12.5549C98.2367 13.0595 98.8616 13.729 99.2758 14.5602C99.6906 15.3944 99.8961 16.3065 99.8961 17.2997V18.6753H90.5226C90.5974 19.867 90.9927 20.816 91.7083 21.5177C92.4224 22.221 93.3836 22.5726 94.5883 22.5726C95.5664 22.5726 96.3179 22.3711 96.8362 21.965C97.355 21.559 97.7349 20.9984 97.9758 20.279H100.123L100.121 20.2819ZM90.5277 16.9583H97.6205C97.6205 15.9196 97.357 15.1046 96.8311 14.5161C96.3026 13.929 95.4752 13.6332 94.3458 13.6332C93.2918 13.6332 92.4296 13.9202 91.7601 14.494C91.0901 15.0664 90.6789 15.8888 90.5298 16.9583H90.5277Z" fill="black"/>
</svg>
