<svg width="120" height="68" viewBox="0 0 120 68" fill="none" xmlns="http://www.w3.org/2000/svg">
<mask id="mask0_17_419" style="mask-type:luminance" maskUnits="userSpaceOnUse" x="20" y="23" width="80" height="22">
<path d="M99.375 23.25H20.625V44.25H99.375V23.25Z" fill="white"/>
</mask>
<g mask="url(#mask0_17_419)">
<path d="M26.0724 30.334C24.2007 30.334 23.2789 31.986 23.2789 34.198V39.742H20.625V28.066H23.223V31.09H23.2789C23.8376 29.214 24.9271 27.73 26.6311 27.73C27.8323 27.73 28.3352 28.15 28.3352 28.15L27.134 30.558C27.134 30.558 26.7708 30.334 26.0724 30.334ZM58.0026 31.958V39.77H55.4326V32.91C55.4326 30.95 54.818 29.914 53.2536 29.914C51.6333 29.914 50.8511 31.23 50.8511 33.75V39.77H48.2811V32.91C48.2811 31.034 47.6665 29.914 46.1301 29.914C44.3422 29.914 43.6717 31.482 43.6717 33.75V39.77H41.0737V28.066H43.6717V30.726H43.6997C44.0908 28.906 45.2082 27.758 47.0799 27.758C48.9236 27.758 50.1248 28.766 50.5997 30.53C51.0467 28.822 52.192 27.758 53.9799 27.758C56.4103 27.758 58.0026 29.298 58.0026 31.958ZM33.5312 27.73C31.1287 27.73 29.5923 28.85 28.866 30.894L31.0729 31.706C31.464 30.474 32.302 29.774 33.587 29.774C35.0118 29.774 35.8777 30.418 35.8777 31.37C35.8777 32.35 35.2073 32.574 33.6988 32.826C32.0227 33.106 28 33.19 28 36.578C28 38.566 29.6481 40.05 32.1344 40.05C34.0061 40.05 35.2911 39.294 35.8777 37.866H35.9057V39.77H38.4757V32.574C38.4478 29.41 36.8834 27.73 33.5312 27.73ZM35.9336 34.254C35.9336 36.718 34.7324 38.286 32.7769 38.286C31.4081 38.286 30.598 37.53 30.598 36.41C30.598 35.374 31.436 34.646 33.0563 34.338C34.7045 34.03 35.5425 33.666 35.9336 32.742V34.254ZM67.1654 27.758C65.21 27.758 63.897 28.85 63.3383 30.474V28.066H60.6006V44.25H63.3104V37.362H63.3383C63.9529 39.126 65.21 40.106 67.1654 40.106C70.2942 40.106 72.529 37.53 72.529 33.89C72.529 30.25 70.2942 27.758 67.1654 27.758ZM66.495 37.922C64.344 37.922 63.1427 36.354 63.1427 33.918C63.1427 31.482 64.4836 29.914 66.495 29.914C68.5063 29.914 69.8472 31.566 69.8472 33.918C69.8472 36.27 68.5063 37.922 66.495 37.922Z" fill="black"/>
<path d="M99.3747 39.686V39.77H88.7872V39.686C90.3236 38.818 91.3572 37.95 92.307 37.026H96.665L99.3747 39.686ZM96.7488 25.882L94.067 23.25H93.9832C93.9832 23.25 94.039 28.15 89.5135 32.63C85.0997 36.998 79.9316 37.026 79.9316 37.026V37.11L82.6693 39.798C82.6693 39.798 87.7815 39.854 92.2791 35.402C96.7767 30.978 96.7488 25.882 96.7488 25.882Z" fill="black"/>
</g>
</svg>
