<svg width="112" height="64" viewBox="0 0 112 64" fill="none" xmlns="http://www.w3.org/2000/svg">
<mask id="mask0_17_412" style="mask-type:luminance" maskUnits="userSpaceOnUse" x="14" y="20" width="84" height="24">
<path d="M97.0323 20H14.9678V44H97.0323V20Z" fill="white"/>
</mask>
<g mask="url(#mask0_17_412)">
<path d="M23.8555 23.8508V30.4121H17.8276V23.8508H14.9678V39.5135H17.8284V33.1652H23.8547V39.5135H26.7162V23.8508H23.8555ZM35.8725 34.4511C35.8725 35.0789 35.6232 35.681 35.1792 36.1249C34.7353 36.5688 34.1332 36.8182 33.5055 36.8182C32.8777 36.8182 32.2756 36.5688 31.8317 36.1249C31.3877 35.681 31.1384 35.0789 31.1384 34.4511V27.7419H28.4248V34.4511C28.4248 35.7972 28.9596 37.0882 29.9114 38.0401C30.8633 38.992 32.1543 39.5267 33.5004 39.5267C34.8466 39.5267 36.1376 38.992 37.0894 38.0401C38.0413 37.0882 38.576 35.7972 38.576 34.4511V27.7419H35.8725V34.4511ZM55.9791 28.4333C55.9791 27.0575 56.8888 26.6217 57.8852 26.6217C58.6888 26.6217 59.7495 27.2333 60.4439 27.975L62.2207 25.88C61.3334 24.68 59.5342 23.8508 58.0609 23.8508C55.1167 23.8508 52.9876 25.575 52.9876 28.4333C52.9876 33.7365 59.4692 32.0534 59.4692 35.0217C59.4692 35.9368 58.5804 36.745 57.5631 36.745C55.9582 36.745 55.438 35.9608 54.7009 35.1308L52.7283 37.1817C53.9902 38.7301 55.5464 39.5166 57.4098 39.5166C60.207 39.5166 62.4568 37.7716 62.4568 35.0433C62.4568 29.1564 55.9745 30.9858 55.9745 28.4333M96.0777 37.0113C94.4744 37.0113 94.0184 36.3177 94.0184 35.2555V30.5522H96.5113V28.1693H94.0184V25.0253L91.2669 26.2601V35.84C91.2669 38.2903 92.9577 39.5252 95.2756 39.5252C95.6395 39.5313 96.0034 39.5019 96.3611 39.4384L97.0323 36.9672C96.7296 36.9881 96.382 37.009 96.0777 37.009M46.2018 27.8201C44.8578 27.8201 43.9195 28.2103 43.0122 29.0999V23.9445H40.2947V33.5004C40.2947 37.0772 42.8805 39.5283 45.7869 39.5283C49.0106 39.5283 51.8465 37.0338 51.8465 33.6753C51.8465 30.3587 49.2367 27.8224 46.2018 27.8224M46.1848 36.793C45.7798 36.793 45.3788 36.7133 45.0046 36.5583C44.6304 36.4033 44.2905 36.1761 44.0041 35.8897C43.7177 35.6034 43.4905 35.2634 43.3356 34.8892C43.1806 34.5151 43.1008 34.114 43.1008 33.709C43.1008 33.304 43.1806 32.903 43.3356 32.5288C43.4905 32.1547 43.7177 31.8147 44.0041 31.5283C44.2905 31.2419 44.6304 31.0148 45.0046 30.8598C45.3788 30.7048 45.7798 30.625 46.1848 30.625C47.0027 30.625 47.7872 30.9499 48.3655 31.5283C48.9439 32.1067 49.2688 32.8911 49.2688 33.709C49.2688 34.527 48.9439 35.3114 48.3655 35.8897C47.7872 36.4681 47.0027 36.793 46.1848 36.793ZM75.7141 33.5329C75.7141 30.1682 72.8844 27.68 69.6545 27.68C66.7489 27.68 64.1624 30.1303 64.1624 33.7079V43.2692H66.8798V38.1068C67.7856 38.9948 68.7254 39.3866 70.0679 39.3866C73.1027 39.3866 75.7141 36.8503 75.7141 33.5329ZM73.1407 33.4988C73.1407 34.3168 72.8158 35.1012 72.2374 35.6795C71.659 36.2579 70.8746 36.5828 70.0567 36.5828C69.2387 36.5828 68.4543 36.2579 67.876 35.6795C67.2976 35.1012 66.9727 34.3168 66.9727 33.4988C66.9727 32.6809 67.2976 31.8965 67.876 31.3181C68.4543 30.7398 69.2387 30.4148 70.0567 30.4148C70.8746 30.4148 71.659 30.7398 72.2374 31.3181C72.8158 31.8965 73.1407 32.6809 73.1407 33.4988Z" fill="#33475B"/>
<path d="M84.495 27.5485V24.8179C84.8558 24.6492 85.1614 24.3816 85.376 24.0461C85.5906 23.7105 85.7056 23.321 85.7074 22.9227V22.86C85.7074 21.6987 84.766 20.7572 83.6047 20.7572H83.542C82.9843 20.7572 82.4495 20.9788 82.0551 21.3731C81.6608 21.7674 81.4393 22.3023 81.4393 22.86V22.9227C81.4411 23.321 81.556 23.7105 81.7707 24.0461C81.9853 24.3816 82.2908 24.6492 82.6517 24.8179V27.5485C81.6146 27.7073 80.6379 28.1373 79.8204 28.7949L72.3317 22.9621C72.3851 22.7694 72.4129 22.5712 72.416 22.3722C72.417 21.9036 72.2789 21.4452 72.0193 21.0551C71.7596 20.665 71.3902 20.3606 70.9575 20.1805C70.5249 20.0004 70.0486 19.9526 69.5888 20.0433C69.1291 20.1339 68.7065 20.3589 68.3746 20.6897C68.0427 21.0205 67.8164 21.4423 67.7242 21.9018C67.6321 22.3613 67.6783 22.8377 67.857 23.2709C68.0357 23.7041 68.3388 24.0746 68.7281 24.3355C69.1174 24.5964 69.5753 24.736 70.0439 24.7366C70.4539 24.7347 70.8562 24.6252 71.2106 24.4192L78.5848 30.1575C77.9224 31.1583 77.5768 32.3354 77.5931 33.5355C77.6094 34.7355 77.9868 35.9028 78.6762 36.8852L76.4333 39.1289C76.252 39.0709 76.0631 39.0401 75.8728 39.0375C75.4882 39.0378 75.1122 39.1521 74.7925 39.366C74.4728 39.5799 74.2237 39.8838 74.0766 40.2392C73.9296 40.5947 73.8912 40.9857 73.9663 41.363C74.0414 41.7402 74.2267 42.0868 74.4987 42.3588C74.7707 42.6308 75.1172 42.816 75.4944 42.8911C75.8717 42.9663 76.2627 42.9279 76.6182 42.7808C76.9736 42.6337 77.2775 42.3846 77.4914 42.0649C77.7053 41.7452 77.8196 41.3693 77.8199 40.9846C77.8174 40.7943 77.7866 40.6054 77.7286 40.4241L79.9474 38.2045C80.6709 38.7615 81.5124 39.1455 82.4073 39.3271C83.3022 39.5087 84.2268 39.4831 85.1102 39.2522C85.9937 39.0213 86.8125 38.5912 87.5041 37.9949C88.1957 37.3986 88.7416 36.6519 89.1 35.8121C89.4584 34.9722 89.6198 34.0615 89.5719 33.1496C89.524 32.2378 89.2679 31.3489 88.8234 30.5513C88.379 29.7537 87.7578 29.0683 87.0075 28.5478C86.2573 28.0274 85.3978 27.6855 84.495 27.5485ZM83.5753 36.5291C83.1652 36.5404 82.757 36.4694 82.3749 36.3202C81.9927 36.1711 81.6443 35.9469 81.3503 35.6608C81.0563 35.3748 80.8226 35.0327 80.663 34.6548C80.5034 34.2769 80.4212 33.8708 80.4212 33.4606C80.4212 33.0504 80.5034 32.6443 80.663 32.2664C80.8226 31.8885 81.0563 31.5464 81.3503 31.2604C81.6443 30.9743 81.9927 30.7501 82.3749 30.601C82.757 30.4518 83.1652 30.3808 83.5753 30.3921C84.37 30.4199 85.123 30.7551 85.6755 31.3271C86.2281 31.899 86.5371 32.6631 86.5375 33.4583C86.5379 34.2536 86.2297 35.018 85.6777 35.5905C85.1257 36.163 84.3731 36.4989 83.5784 36.5276" fill="#FF7A59"/>
</g>
</svg>
